<svg id="9a246f31-915d-4a09-8649-f3fa4acbe2bb" data-name="Layer 1" xmlns="http://www.w3.org/2000/svg" viewBox="0 0 46.32 46.32"><defs><style>.f843b209-56c9-49dc-b502-ad1df3959669{fill:none;stroke:#f18c00;stroke-linecap:round;stroke-linejoin:round;stroke-width:6px;}.\31 6047ae4-6728-4079-959a-8cab0fc5032f{fill:#f18c00;}</style></defs><title>icon-tie-orange</title><path class="f843b209-56c9-49dc-b502-ad1df3959669" d="M31.42,41.55a20.15,20.15,0,1,1,9.77-9.37"/><path class="16047ae4-6728-4079-959a-8cab0fc5032f" d="M17.09,14.41a6.07,6.07,0,1,0,6.06-6.08A6.11,6.11,0,0,0,17.09,14.41Z"/><path class="16047ae4-6728-4079-959a-8cab0fc5032f" d="M30.33,23.46H25.21l-1.83,3,2.47,8L23.16,37l-2.69-2.69,2.47-7.9-1.83-3H16a3.16,3.16,0,0,0-3.48,3.25v6.66A16.67,16.67,0,0,0,24,38a16.93,16.93,0,0,0,10.52-3.81V26.71C34.51,24.67,32.37,23.46,30.33,23.46Z"/></svg>