<?xml version="1.0" encoding="UTF-8" standalone="no"?>
<svg width="1024px" height="1024px" viewBox="0 0 1024 1024" version="1.1" xmlns="http://www.w3.org/2000/svg" xmlns:xlink="http://www.w3.org/1999/xlink" xmlns:sketch="http://www.bohemiancoding.com/sketch/ns">
    <!-- Generator: Sketch 3.3.3 (12072) - http://www.bohemiancoding.com/sketch -->
    <title>total-admin-logout</title>
    <desc>Created with Sketch.</desc>
    <defs>
        <linearGradient x1="0%" y1="0%" x2="101.999998%" y2="100.999999%" id="linearGradient-1">
            <stop stop-color="#EC2222" offset="0%"></stop>
            <stop stop-color="#F5BD2E" offset="100%"></stop>
        </linearGradient>
        <path id="path-2" d="M659.423017,25 C757.2045,25 806.083067,25 858.71965,41.6391667 C916.18565,62.5558167 961.444183,107.81435 982.360833,165.28035 C999,217.908817 999,266.803617 999,364.576983 L999,659.423017 C999,757.2045 999,806.083067 982.360833,858.71965 C961.444183,916.18565 916.18565,961.444183 858.71965,982.352717 C806.083067,999 757.2045,999 659.423017,999 L364.576983,999 C266.7955,999 217.908817,999 165.28035,982.352717 C107.81435,961.444183 62.5558167,916.18565 41.6391667,858.71965 C25,806.083067 25,757.2045 25,659.423017 L25,364.576983 C25,266.803617 25,217.908817 41.6391667,165.28035 C62.5558167,107.81435 107.81435,62.5558167 165.28035,41.6391667 C217.908817,25 266.7955,25 364.576983,25 L659.423017,25 Z"></path>
    </defs>
    <g id="Total-CMS" stroke="none" stroke-width="1" fill="none" fill-rule="evenodd" sketch:type="MSPage">
        <g id="total-admin-logout" sketch:type="MSArtboardGroup">
            <g id="Icon-Shape">
                <use stroke="none" fill="url(#linearGradient-1)" fill-rule="evenodd" sketch:type="MSShapeGroup" xlink:href="#path-2"></use>
                <use stroke="#FFFFFF" stroke-width="25" fill="none" xlink:href="#path-2"></use>
            </g>
            <path d="M244.227262,724.556353 C265.489007,745.818098 291.546864,756.785004 321.728766,756.785004 L444.472576,756.785004 C447.894006,756.785004 450.64337,756.112937 452.018051,754.03564 C454.0648,752.660958 455.439482,749.942143 456.111548,747.19278 C456.814163,743.771349 456.814163,740.319371 457.48623,738.272622 C457.48623,735.523259 457.48623,732.101828 456.814163,727.977783 L456.814163,720.432307 C456.814163,718.385559 456.111548,716.338811 456.111548,714.964129 C455.439482,713.589447 454.736866,712.886832 453.362185,711.542699 C452.018051,710.840083 450.64337,710.168017 449.940754,709.465402 C449.268688,708.793335 447.894006,708.793335 445.847258,708.793335 C443.769961,708.09072 442.395279,708.09072 441.020597,708.09072 L436.224485,708.09072 L432.130988,708.09072 L321.728766,708.09072 C305.263133,708.09072 290.874797,701.919926 278.53321,690.280954 C266.863689,677.939366 260.692895,663.520481 260.692895,647.085397 L260.692895,376.914603 C260.692895,360.44897 266.863689,346.060634 278.53321,333.719046 C290.874797,322.049525 305.263133,315.878732 321.728766,315.878732 L444.472576,315.878732 C447.894006,315.878732 450.64337,315.206665 452.018051,313.159917 C454.0648,311.785235 455.439482,309.035871 456.111548,306.286508 C456.814163,302.865077 456.814163,299.443647 457.48623,297.36635 C457.48623,294.647535 457.48623,291.195556 456.814163,287.10206 L456.814163,279.556584 C456.814163,276.135154 455.439482,273.38579 452.690118,270.636427 C450.64337,268.589678 447.894006,267.214996 444.472576,267.214996 L321.728766,267.214996 C291.546864,267.214996 265.489007,278.181902 244.227262,299.443647 C222.996066,321.377459 211.998611,346.732701 211.998611,377.617218 L211.998611,646.382782 C211.998611,677.236751 222.996066,702.622541 244.227262,724.556353 L244.227262,724.556353 Z M366.299005,602.515159 C371.095117,607.311271 376.593844,610.060634 383.436704,610.060634 L554.844249,610.060634 L554.844249,719.760241 C554.844249,726.603101 557.593613,732.101828 562.389725,736.89794 C567.185837,741.694052 572.684564,744.443416 579.527424,744.443416 C585.698218,744.443416 591.869012,741.694052 596.695672,736.89794 L804.455913,529.1377 C809.252025,524.341588 812.001389,518.84286 812.001389,512 C812.001389,505.126591 809.252025,499.658412 804.455913,494.8623 L596.695672,287.10206 C591.869012,282.305948 585.698218,279.556584 579.527424,279.556584 C572.684564,279.556584 567.185837,282.305948 562.389725,287.10206 C557.593613,291.898172 554.844249,297.36635 554.844249,304.239759 L554.844249,413.939366 L383.436704,413.939366 C376.593844,413.939366 371.095117,416.688729 366.299005,421.484841 C361.502893,426.280953 358.753529,431.779681 358.753529,438.622541 L358.753529,585.377459 C358.753529,592.220319 361.502893,597.719047 366.299005,602.515159 L366.299005,602.515159 Z" id="fa-sign-out" fill="#FFFFFF" sketch:type="MSShapeGroup"></path>
        </g>
    </g>
</svg>