<svg id="Layer_1" data-name="Layer 1" xmlns="http://www.w3.org/2000/svg" xmlns:xlink="http://www.w3.org/1999/xlink" viewBox="0 0 485.37 485.37"><defs><style>.cls-1,.cls-5{fill:none;}.cls-12,.cls-2,.cls-6,.cls-9{fill:#fff;}.cls-3{fill:#a7a9ac;}.cls-4{clip-path:url(#clip-path);}.cls-10,.cls-11,.cls-12,.cls-13,.cls-5,.cls-6{stroke:#6d6e71;}.cls-10,.cls-11,.cls-12,.cls-13,.cls-5,.cls-6,.cls-9{stroke-miterlimit:10;}.cls-5,.cls-6{stroke-width:11.5px;}.cls-7{fill:#58595b;opacity:0.1;}.cls-8{fill:#5abbea;}.cls-9{stroke:#356c9e;}.cls-11,.cls-12,.cls-13,.cls-9{stroke-width:12px;}.cls-10{fill:#808285;stroke-width:6px;}.cls-11{fill:#ffde17;}.cls-13{fill:#ff4e3c;}.cls-14{fill:#6d6e71;}</style><clipPath id="clip-path"><path class="cls-1" d="M52.47,32.69V237.61c0,104.65,84.84,189.49,189.49,189.49s189.49-84.84,189.49-189.49V32.69Z"/></clipPath></defs><title>Artboard 174 copy</title><circle class="cls-2" cx="241.31" cy="242.69" r="189.49"/><path class="cls-3" d="M241.31,437.17c-107.24,0-194.49-87.25-194.49-194.49S134.07,48.2,241.31,48.2,435.8,135.45,435.8,242.69,348.55,437.17,241.31,437.17Zm0-379C139.59,58.2,56.83,141,56.83,242.69s82.76,184.49,184.49,184.49S425.8,344.41,425.8,242.69,343,58.2,241.31,58.2Z"/><g class="cls-4"><line class="cls-5" x1="90.49" y1="419.01" x2="130.9" y2="419.01"/><polygon class="cls-6" points="382.03 452.07 113.83 452.07 113.83 90.37 320.12 90.37 382.03 162.9 382.03 452.07"/><polyline class="cls-5" points="319.04 90.37 319.04 162.9 380.95 162.9"/><polygon class="cls-7" points="114.71 90.37 114.71 440.85 382.92 440.85 114.71 90.37"/></g><rect class="cls-8" x="146.17" y="193.69" width="200.32" height="12.09"/><rect class="cls-8" x="146.17" y="222.09" width="200.32" height="12.09"/><rect class="cls-8" x="146.17" y="250.5" width="135.93" height="12.09"/><rect class="cls-8" x="146.17" y="296.48" width="200.32" height="12.09"/><rect class="cls-8" x="146.17" y="324.88" width="200.32" height="12.09"/><rect class="cls-8" x="146.17" y="353.29" width="135.93" height="12.09"/><polygon class="cls-9" points="333.86 318.82 324.1 339.46 337.15 353.94 358.7 339.86 335.93 317.5 333.86 318.82"/><polygon class="cls-10" points="312.13 364.18 337.94 353.62 322.5 337.83 312.13 364.18"/><polygon class="cls-11" points="361.04 342.61 333.09 314.66 435.71 212.03 449.69 226.01 463.66 239.99 361.04 342.61"/><polyline class="cls-12" points="330.41 316.81 312.13 364.18 357.72 345.53"/><path class="cls-13" d="M472.88,202.81c-7.71-7.71-21.12-6.79-30,2l-7.19,7.19L463.64,240l7.19-7.19C479.68,223.94,480.59,210.52,472.88,202.81Z"/><polygon class="cls-14" points="324.61 314.68 301.71 374.91 329.71 321.81 332.58 314.6 324.61 314.68"/><polygon class="cls-14" points="361.08 351.06 301.71 374.91 353.87 345.97 361.09 343.1 361.08 351.06"/></svg>